<svg width="76" height="25" viewBox="0 0 76 25" fill="none" xmlns="http://www.w3.org/2000/svg">
<g clip-path="url(#clip0_3_44)">
<path d="M6.44752 10.7542C8.35 10.6592 10.253 10.5738 12.1565 10.4978C12.1565 12.9402 12.153 15.3836 12.1459 17.8279C12.261 21.3647 9.67216 23.8104 6.06298 24.2534C2.24035 24.7306 -0.0623115 22.3718 -0.000240989 18.8549V6.14477C0.0133842 2.69055 2.27063 -0.0414868 6.08721 -0.000178563C9.7206 0.0397052 12.2231 2.33587 12.1641 5.81003C12.1641 6.70884 12.1641 7.15753 12.1641 8.05492C10.6199 8.10335 9.84928 8.12899 8.30661 8.18312C8.30661 7.17748 8.30661 6.67466 8.30661 5.66759C8.30661 3.99105 7.49363 3.36573 6.19469 3.38852C4.89576 3.41131 4.07522 4.07224 4.07522 5.78297L4.06613 18.7082C4.06613 20.4175 4.8791 20.9488 6.17501 20.8248C7.47092 20.7009 8.28692 20.0243 8.29449 18.3478V14.0218C7.55419 14.0674 7.18328 14.0902 6.44146 14.1386C6.44449 12.7826 6.446 12.1074 6.44752 10.7542Z" fill="#E30613"/>
<path d="M20.8662 18.5844H20.9404C21.9699 12.4718 23.0059 6.36194 24.0485 0.254974H27.7954C26.443 7.69235 25.0971 15.1302 23.7578 22.5685C21.7261 22.6635 19.696 22.785 17.6673 22.9332C16.327 15.378 15.0028 7.8215 13.6948 0.263521H17.8142C18.8225 6.37049 19.8398 12.4775 20.8662 18.5844Z" fill="#E30613"/>
<path d="M33.7603 10.0251C35.5184 10.0156 37.2766 10.0108 39.0347 10.0108C39.0347 11.2672 39.0347 11.8939 39.0347 13.1446C37.2746 13.1446 35.5154 13.1503 33.7572 13.1617V22.2423C32.1207 22.2666 31.3017 22.2836 29.6697 22.3307L29.6878 0.252136C33.2879 0.252136 36.888 0.252136 40.4881 0.252136V3.38586C38.2495 3.38586 36.01 3.38586 33.7694 3.38586C33.7633 5.60131 33.7603 7.81438 33.7603 10.0251Z" fill="#E30613"/>
<path d="M42.4547 0.252136H46.5423C46.5483 6.56422 46.5539 12.8753 46.5589 19.1855C48.8026 19.2501 51.0447 19.3294 53.2853 19.4234C53.2853 20.7054 53.2853 21.3407 53.2853 22.6184C49.6811 22.4389 46.075 22.3159 42.4668 22.2495C42.4618 14.9184 42.4577 7.586 42.4547 0.252136Z" fill="#E30613"/>
<path d="M55.0338 0.257812H59.1214C59.1325 7.83478 59.1441 15.4113 59.1562 22.9873C57.5227 22.8676 56.7067 22.8135 55.0686 22.7166C55.0575 15.2318 55.0459 7.74552 55.0338 0.257812Z" fill="#E30613"/>
<path d="M75.7032 0.284884C74.3044 4.15646 72.8848 8.02091 71.4446 11.8782C72.9949 16.1515 74.5133 20.4343 76 24.7265C74.5729 24.5366 73.1437 24.3581 71.7126 24.1909C70.6266 20.9622 69.5255 17.7336 68.4092 14.5049H68.335C67.2379 17.5038 66.1303 20.4984 65.012 23.4887C63.4844 23.3462 62.7214 23.2793 61.1924 23.1568C62.7245 19.3052 64.2384 15.4478 65.7341 11.5848C64.3211 7.80725 62.8935 4.03633 61.4513 0.272064H65.6811C66.7116 3.16364 67.7285 6.06043 68.7317 8.96245H68.8059C69.8525 6.06803 70.8885 3.17171 71.9139 0.273489L75.7032 0.284884Z" fill="#E30613"/>
</g>
<defs>
<clipPath id="clip0_3_44">
<rect width="76" height="25" fill="white"/>
</clipPath>
</defs>
</svg>
